%FSLAX25Y25*%
%MOIN*%
G70*
G01*
G75*
G04 Layer_Color=65535*
%ADD10R,0.02756X0.03543*%
%ADD11R,0.06693X0.09449*%
%ADD12O,0.06693X0.01181*%
%ADD13O,0.06890X0.02165*%
%ADD14O,0.02165X0.06890*%
%ADD15R,0.15748X0.15748*%
%ADD16R,0.07874X0.15748*%
%ADD17R,0.03543X0.02756*%
%ADD18R,0.01575X0.05315*%
%ADD19R,0.05512X0.05512*%
%ADD20R,0.04724X0.03543*%
%ADD21R,0.05000X0.05000*%
%ADD22R,0.03937X0.05512*%
%ADD23R,0.03150X0.03543*%
%ADD24R,0.04331X0.06693*%
%ADD25R,0.03543X0.03150*%
%ADD26R,0.09449X0.06693*%
%ADD27C,0.01575*%
%ADD28C,0.01181*%
%ADD29C,0.01378*%
%ADD30C,0.00984*%
%ADD31C,0.01000*%
%ADD32C,0.00600*%
%ADD33C,0.07874*%
%ADD34O,0.05906X0.07874*%
%ADD35O,0.03937X0.06693*%
%ADD36R,0.05906X0.05906*%
%ADD37C,0.05906*%
%ADD38C,0.12598*%
%ADD39R,0.04724X0.15748*%
%ADD40C,0.03150*%
%ADD41C,0.01969*%
%ADD42C,0.04724*%
%ADD43O,0.01378X0.06693*%
%ADD44O,0.02756X0.01772*%
%ADD45R,0.05906X0.09449*%
%ADD46R,0.07677X0.10827*%
%ADD47R,0.11811X0.08268*%
%ADD48R,0.06299X0.03150*%
%ADD49O,0.02362X0.06693*%
%ADD50R,0.05001X0.01969*%
%ADD51R,0.01969X0.04801*%
%ADD52O,0.01969X0.00984*%
%ADD53O,0.00984X0.03937*%
%ADD54R,0.06496X0.09449*%
%ADD55R,0.04000X0.06000*%
%ADD56R,0.06000X0.04000*%
%ADD57C,0.03150*%
%ADD58C,0.02362*%
%ADD59C,0.00787*%
%ADD60C,0.00394*%
%ADD61C,0.00800*%
%ADD62C,0.00591*%
D27*
X82677Y264000D02*
X112000D01*
X119000D02*
X132287D01*
X82681Y264035D02*
Y264681D01*
X132287Y264035D02*
Y264787D01*
X130713Y280213D02*
Y280965D01*
X82681Y280181D02*
Y280965D01*
Y264035D02*
X132287D01*
X82681Y280965D02*
X130713D01*
D28*
X68898Y51181D02*
Y73228D01*
X165354D01*
X64961Y31496D02*
X68898Y51181D01*
X35433Y31496D02*
Y285827D01*
X165354D01*
Y73228D02*
Y285827D01*
X35433Y31496D02*
X64961D01*
D30*
X55921Y250193D02*
G03*
X55921Y250193I-492J0D01*
G01*
X135988Y243244D02*
G03*
X135988Y243244I-492J0D01*
G01*
D31*
X56157Y182701D02*
X75842D01*
X56157Y195299D02*
X75842D01*
X119500Y102000D02*
Y104000D01*
X54500Y102000D02*
X119500D01*
X54500D02*
Y104000D01*
Y120000D02*
Y139000D01*
X119500Y170000D02*
Y172000D01*
X54500D02*
X119500D01*
X54500Y170000D02*
Y172000D01*
X61201Y206157D02*
Y225842D01*
X73799Y206157D02*
Y225842D01*
X165354Y287417D02*
Y320000D01*
X35433Y287417D02*
Y320000D01*
X114389Y319000D02*
X165354D01*
X35433D02*
X83198D01*
X159354Y321000D02*
X165354Y319000D01*
X159354Y317000D02*
X165354Y319000D01*
X35433D02*
X41433Y317000D01*
X35433Y319000D02*
X41433Y321000D01*
X166945Y73228D02*
X187500D01*
X166945Y285827D02*
X187500D01*
X186500Y73228D02*
Y162332D01*
Y193523D02*
Y285827D01*
Y73228D02*
X188500Y79228D01*
X184500D02*
X186500Y73228D01*
X184500Y279827D02*
X186500Y285827D01*
X188500Y279827D01*
X16500Y31496D02*
X63370D01*
X16500Y285827D02*
X33843D01*
X17500Y31496D02*
Y141466D01*
Y172657D02*
Y285827D01*
Y31496D02*
X19500Y37496D01*
X15500D02*
X17500Y31496D01*
X15500Y279827D02*
X17500Y285827D01*
X19500Y279827D01*
X165354Y29500D02*
Y71638D01*
X68898Y29500D02*
Y71638D01*
X131122Y30500D02*
X165354D01*
X68898D02*
X99931D01*
X159354Y32500D02*
X165354Y30500D01*
X159354Y28500D02*
X165354Y30500D01*
X68898D02*
X74898Y28500D01*
X68898Y30500D02*
X74898Y32500D01*
X38780Y284071D02*
Y293500D01*
X35433Y287417D02*
Y293500D01*
X25433Y292500D02*
X35433D01*
X38780D02*
X48779D01*
X29433Y294500D02*
X35433Y292500D01*
X29433Y290500D02*
X35433Y292500D01*
X38780D02*
X44780Y290500D01*
X38780Y292500D02*
X44780Y294500D01*
D32*
X84798Y319400D02*
X85798Y320399D01*
X87797D01*
X88797Y319400D01*
Y318400D01*
X87797Y317400D01*
X86798D01*
X87797D01*
X88797Y316401D01*
Y315401D01*
X87797Y314401D01*
X85798D01*
X84798Y315401D01*
X90796Y319400D02*
X91796Y320399D01*
X93795D01*
X94795Y319400D01*
Y318400D01*
X93795Y317400D01*
X92796D01*
X93795D01*
X94795Y316401D01*
Y315401D01*
X93795Y314401D01*
X91796D01*
X90796Y315401D01*
X97794Y313402D02*
X98794Y314401D01*
Y315401D01*
X97794D01*
Y314401D01*
X98794D01*
X97794Y313402D01*
X96794Y312402D01*
X102792Y319400D02*
X103792Y320399D01*
X105791D01*
X106791Y319400D01*
Y315401D01*
X105791Y314401D01*
X103792D01*
X102792Y315401D01*
Y319400D01*
X108791D02*
X109790Y320399D01*
X111790D01*
X112789Y319400D01*
Y315401D01*
X111790Y314401D01*
X109790D01*
X108791Y315401D01*
Y319400D01*
X185101Y167931D02*
Y163932D01*
X188100D01*
X187100Y165931D01*
Y166931D01*
X188100Y167931D01*
X190099D01*
X191099Y166931D01*
Y164932D01*
X190099Y163932D01*
X191099Y172929D02*
X185101D01*
X188100Y169930D01*
Y173929D01*
X192098Y176928D02*
X191099Y177927D01*
X190099D01*
Y176928D01*
X191099D01*
Y177927D01*
X192098Y176928D01*
X193098Y175928D01*
X186100Y181926D02*
X185101Y182926D01*
Y184925D01*
X186100Y185925D01*
X190099D01*
X191099Y184925D01*
Y182926D01*
X190099Y181926D01*
X186100D01*
Y187924D02*
X185101Y188924D01*
Y190923D01*
X186100Y191923D01*
X190099D01*
X191099Y190923D01*
Y188924D01*
X190099Y187924D01*
X186100D01*
X16101Y147065D02*
X17100Y145065D01*
X19100Y143066D01*
X21099D01*
X22099Y144066D01*
Y146065D01*
X21099Y147065D01*
X20099D01*
X19100Y146065D01*
Y143066D01*
X22099Y152063D02*
X16101D01*
X19100Y149064D01*
Y153063D01*
X23098Y156062D02*
X22099Y157061D01*
X21099D01*
Y156062D01*
X22099D01*
Y157061D01*
X23098Y156062D01*
X24098Y155062D01*
X16101Y165059D02*
X17100Y163059D01*
X19100Y161060D01*
X21099D01*
X22099Y162060D01*
Y164059D01*
X21099Y165059D01*
X20099D01*
X19100Y164059D01*
Y161060D01*
X17100Y167058D02*
X16101Y168058D01*
Y170057D01*
X17100Y171057D01*
X21099D01*
X22099Y170057D01*
Y168058D01*
X21099Y167058D01*
X17100D01*
X105529Y25901D02*
X101531D01*
X105529Y29900D01*
Y30900D01*
X104530Y31899D01*
X102530D01*
X101531Y30900D01*
X110528Y25901D02*
Y31899D01*
X107529Y28900D01*
X111527D01*
X114526Y24902D02*
X115526Y25901D01*
Y26901D01*
X114526D01*
Y25901D01*
X115526D01*
X114526Y24902D01*
X113527Y23902D01*
X123523Y31899D02*
X119525D01*
Y28900D01*
X121524Y29900D01*
X122524D01*
X123523Y28900D01*
Y26901D01*
X122524Y25901D01*
X120524D01*
X119525Y26901D01*
X125523Y30900D02*
X126522Y31899D01*
X128522D01*
X129522Y30900D01*
Y26901D01*
X128522Y25901D01*
X126522D01*
X125523Y26901D01*
Y30900D01*
X24510Y306696D02*
X25510Y307696D01*
X27509D01*
X28509Y306696D01*
Y302697D01*
X27509Y301697D01*
X25510D01*
X24510Y302697D01*
Y306696D01*
X31508Y300698D02*
X32507Y301697D01*
Y302697D01*
X31508D01*
Y301697D01*
X32507D01*
X31508Y300698D01*
X30508Y299698D01*
X36506Y306696D02*
X37506Y307696D01*
X39505D01*
X40505Y306696D01*
Y305696D01*
X39505Y304696D01*
X40505Y303697D01*
Y302697D01*
X39505Y301697D01*
X37506D01*
X36506Y302697D01*
Y303697D01*
X37506Y304696D01*
X36506Y305696D01*
Y306696D01*
X37506Y304696D02*
X39505D01*
X46503Y307696D02*
X42504D01*
Y304696D01*
X44503Y305696D01*
X45503D01*
X46503Y304696D01*
Y302697D01*
X45503Y301697D01*
X43504D01*
X42504Y302697D01*
D58*
X130870Y234189D02*
G03*
X130870Y234189I-1181J0D01*
G01*
D59*
X155213Y224878D02*
X156787D01*
X155213Y222122D02*
X156787D01*
X60350Y237201D02*
X66650D01*
X60350Y249799D02*
X66650D01*
Y237201D02*
Y249799D01*
X60350Y237201D02*
Y249799D01*
X99374Y203874D02*
Y238126D01*
X133626Y203874D02*
Y238126D01*
X99374Y203874D02*
X133626D01*
X99374Y238126D02*
X133626D01*
X93213Y258622D02*
X94787D01*
X93213Y261378D02*
X94787D01*
X116205Y255622D02*
X117780D01*
X116205Y258378D02*
X117780D01*
X129213Y145622D02*
X130787D01*
X129213Y148378D02*
X130787D01*
X129213Y140622D02*
X130787D01*
X129213Y143378D02*
X130787D01*
X47114Y133213D02*
Y134787D01*
X49870Y133213D02*
Y134787D01*
X46878Y238213D02*
Y239787D01*
X44122Y238213D02*
Y239787D01*
X136713Y190622D02*
X138287D01*
X136713Y193378D02*
X138287D01*
X58878Y226713D02*
Y228287D01*
X56122Y226713D02*
Y228287D01*
X118122Y180713D02*
Y182287D01*
X120878Y180713D02*
Y182287D01*
X64713Y255878D02*
X66287D01*
X64713Y253122D02*
X66287D01*
X80713Y242122D02*
X82287D01*
X80713Y244878D02*
X82287D01*
X161000Y268000D02*
Y278000D01*
X141000Y268000D02*
X161000D01*
X141000D02*
Y278000D01*
X161000D01*
X151425Y249047D02*
X154575D01*
X151425Y254953D02*
X154575D01*
X46425Y216953D02*
X49575D01*
X46425Y211047D02*
X49575D01*
X158000Y264574D02*
X160099D01*
X159049Y265624D02*
Y263525D01*
D60*
X46008Y228425D02*
X47091D01*
Y231575D01*
X46008D02*
X47091D01*
X45965Y220925D02*
X47047D01*
Y224075D01*
X45965D02*
X47047D01*
X64000Y216640D02*
X64328Y216968D01*
X64984D01*
X65312Y216640D01*
Y216312D01*
X64984Y215984D01*
X65312Y215656D01*
Y215328D01*
X64984Y215000D01*
X64328D01*
X64000Y215328D01*
Y215656D01*
X64328Y215984D01*
X64000Y216312D01*
Y216640D01*
X64328Y215984D02*
X64984D01*
X65968Y215000D02*
Y216968D01*
X66624Y216312D01*
X67280Y216968D01*
Y215000D01*
X67936Y216968D02*
Y215000D01*
Y215984D01*
X69248D01*
Y216968D01*
Y215000D01*
X69904Y216312D02*
X71215D01*
X69904Y215000D01*
X71215D01*
X45812Y208640D02*
X45484Y208968D01*
X44828D01*
X44500Y208640D01*
Y207328D01*
X44828Y207000D01*
X45484D01*
X45812Y207328D01*
X46468Y208640D02*
X46796Y208968D01*
X47452D01*
X47780Y208640D01*
Y207328D01*
X47452Y207000D01*
X46796D01*
X46468Y207328D01*
Y208640D01*
X48436Y207000D02*
X49092D01*
X48764D01*
Y208968D01*
X48436Y208640D01*
X138312Y258640D02*
X137984Y258968D01*
X137328D01*
X137000Y258640D01*
Y257328D01*
X137328Y257000D01*
X137984D01*
X138312Y257328D01*
X138968Y258640D02*
X139296Y258968D01*
X139952D01*
X140280Y258640D01*
Y257328D01*
X139952Y257000D01*
X139296D01*
X138968Y257328D01*
Y258640D01*
X142248Y257000D02*
X140936D01*
X142248Y258312D01*
Y258640D01*
X141920Y258968D01*
X141264D01*
X140936Y258640D01*
X155812Y236640D02*
X155484Y236968D01*
X154828D01*
X154500Y236640D01*
Y235328D01*
X154828Y235000D01*
X155484D01*
X155812Y235328D01*
X157780Y236968D02*
X157124Y236640D01*
X156468Y235984D01*
Y235328D01*
X156796Y235000D01*
X157452D01*
X157780Y235328D01*
Y235656D01*
X157452Y235984D01*
X156468D01*
X124812Y252140D02*
X124484Y252468D01*
X123828D01*
X123500Y252140D01*
Y250828D01*
X123828Y250500D01*
X124484D01*
X124812Y250828D01*
X125468Y252468D02*
X126780D01*
Y252140D01*
X125468Y250828D01*
Y250500D01*
X82360Y214312D02*
X82032Y213984D01*
Y213328D01*
X82360Y213000D01*
X83672D01*
X84000Y213328D01*
Y213984D01*
X83672Y214312D01*
X82360Y214968D02*
X82032Y215296D01*
Y215952D01*
X82360Y216280D01*
X82688D01*
X83016Y215952D01*
X83344Y216280D01*
X83672D01*
X84000Y215952D01*
Y215296D01*
X83672Y214968D01*
X83344D01*
X83016Y215296D01*
X82688Y214968D01*
X82360D01*
X83016Y215296D02*
Y215952D01*
X82210Y224961D02*
X81883Y224634D01*
Y223978D01*
X82210Y223650D01*
X83522D01*
X83850Y223978D01*
Y224634D01*
X83522Y224961D01*
Y225618D02*
X83850Y225945D01*
Y226601D01*
X83522Y226929D01*
X82210D01*
X81883Y226601D01*
Y225945D01*
X82210Y225618D01*
X82538D01*
X82867Y225945D01*
Y226929D01*
X151812Y246140D02*
X151484Y246468D01*
X150828D01*
X150500Y246140D01*
Y244828D01*
X150828Y244500D01*
X151484D01*
X151812Y244828D01*
X152468Y244500D02*
X153124D01*
X152796D01*
Y246468D01*
X152468Y246140D01*
X154108Y244500D02*
X154764D01*
X154436D01*
Y246468D01*
X154108Y246140D01*
X138312Y244640D02*
X137984Y244968D01*
X137328D01*
X137000Y244640D01*
Y243328D01*
X137328Y243000D01*
X137984D01*
X138312Y243328D01*
X138968Y243000D02*
X139624D01*
X139296D01*
Y244968D01*
X138968Y244640D01*
X141920Y244968D02*
X140608D01*
Y243984D01*
X141264Y244312D01*
X141592D01*
X141920Y243984D01*
Y243328D01*
X141592Y243000D01*
X140936D01*
X140608Y243328D01*
X53032Y220000D02*
X55000D01*
Y220984D01*
X54672Y221312D01*
X53360D01*
X53032Y220984D01*
Y220000D01*
X53360Y221968D02*
X53032Y222296D01*
Y222952D01*
X53360Y223280D01*
X54672D01*
X55000Y222952D01*
Y222296D01*
X54672Y221968D01*
X53360D01*
X55000Y223936D02*
Y224592D01*
Y224264D01*
X53032D01*
X53360Y223936D01*
X53032Y227500D02*
X55000D01*
Y228484D01*
X54672Y228812D01*
X53360D01*
X53032Y228484D01*
Y227500D01*
X53360Y229468D02*
X53032Y229796D01*
Y230452D01*
X53360Y230780D01*
X54672D01*
X55000Y230452D01*
Y229796D01*
X54672Y229468D01*
X53360D01*
X55000Y232748D02*
Y231436D01*
X53688Y232748D01*
X53360D01*
X53032Y232420D01*
Y231764D01*
X53360Y231436D01*
X141000Y265968D02*
Y264000D01*
X142312D01*
X142968D02*
X143624D01*
X143296D01*
Y265312D01*
X142968D01*
X144608Y264000D02*
Y265968D01*
X145592D01*
X145920Y265640D01*
Y264984D01*
X145592Y264656D01*
X144608D01*
X146904Y264000D02*
X147559D01*
X147888Y264328D01*
Y264984D01*
X147559Y265312D01*
X146904D01*
X146576Y264984D01*
Y264328D01*
X146904Y264000D01*
X148544Y263672D02*
X149855D01*
X150511Y264000D02*
X151167D01*
X150839D01*
Y265312D01*
X150511D01*
X152151Y264000D02*
Y265312D01*
X153135D01*
X153463Y264984D01*
Y264000D01*
X51000Y259500D02*
Y261468D01*
X51656Y260812D01*
X52312Y261468D01*
Y259500D01*
X52968D02*
X53624D01*
X53296D01*
Y260812D01*
X52968D01*
X55920D02*
X54936D01*
X54608Y260484D01*
Y259828D01*
X54936Y259500D01*
X55920D01*
X56576Y260812D02*
Y259500D01*
Y260156D01*
X56904Y260484D01*
X57232Y260812D01*
X57560D01*
X58872Y259500D02*
X59527D01*
X59855Y259828D01*
Y260484D01*
X59527Y260812D01*
X58872D01*
X58543Y260484D01*
Y259828D01*
X58872Y259500D01*
X62479Y261468D02*
Y259828D01*
X62807Y259500D01*
X63463D01*
X63791Y259828D01*
Y261468D01*
X65759Y261140D02*
X65431Y261468D01*
X64775D01*
X64447Y261140D01*
Y260812D01*
X64775Y260484D01*
X65431D01*
X65759Y260156D01*
Y259828D01*
X65431Y259500D01*
X64775D01*
X64447Y259828D01*
X66415Y261468D02*
Y259500D01*
X67399D01*
X67727Y259828D01*
Y260156D01*
X67399Y260484D01*
X66415D01*
X67399D01*
X67727Y260812D01*
Y261140D01*
X67399Y261468D01*
X66415D01*
X70351D02*
Y259500D01*
X71335D01*
X71662Y259828D01*
Y260156D01*
X71335Y260484D01*
X70351D01*
X71335D01*
X71662Y260812D01*
Y261140D01*
X71335Y261468D01*
X70351D01*
X77500Y238000D02*
Y239968D01*
X78484D01*
X78812Y239640D01*
Y238984D01*
X78484Y238656D01*
X77500D01*
X78156D02*
X78812Y238000D01*
X79468Y239640D02*
X79796Y239968D01*
X80452D01*
X80780Y239640D01*
Y238328D01*
X80452Y238000D01*
X79796D01*
X79468Y238328D01*
Y239640D01*
X81436Y238000D02*
X82092D01*
X81764D01*
Y239968D01*
X81436Y239640D01*
X80500Y233500D02*
Y235468D01*
X81484D01*
X81812Y235140D01*
Y234484D01*
X81484Y234156D01*
X80500D01*
X81156D02*
X81812Y233500D01*
X82468D02*
X83124D01*
X82796D01*
Y235468D01*
X82468Y235140D01*
X54000Y253500D02*
Y255468D01*
X54984D01*
X55312Y255140D01*
Y254484D01*
X54984Y254156D01*
X54000D01*
X54656D02*
X55312Y253500D01*
X55968Y255140D02*
X56296Y255468D01*
X56952D01*
X57280Y255140D01*
Y253828D01*
X56952Y253500D01*
X56296D01*
X55968Y253828D01*
Y255140D01*
X59248Y253500D02*
X57936D01*
X59248Y254812D01*
Y255140D01*
X58920Y255468D01*
X58264D01*
X57936Y255140D01*
X62500Y228500D02*
X60532D01*
Y229484D01*
X60860Y229812D01*
X61516D01*
X61844Y229484D01*
Y228500D01*
Y229156D02*
X62500Y229812D01*
X60860Y230468D02*
X60532Y230796D01*
Y231452D01*
X60860Y231780D01*
X62172D01*
X62500Y231452D01*
Y230796D01*
X62172Y230468D01*
X60860D01*
Y232436D02*
X60532Y232764D01*
Y233420D01*
X60860Y233748D01*
X61188D01*
X61516Y233420D01*
Y233092D01*
Y233420D01*
X61844Y233748D01*
X62172D01*
X62500Y233420D01*
Y232764D01*
X62172Y232436D01*
X42500Y236500D02*
X40532D01*
Y237484D01*
X40860Y237812D01*
X41516D01*
X41844Y237484D01*
Y236500D01*
Y237156D02*
X42500Y237812D01*
X40860Y238468D02*
X40532Y238796D01*
Y239452D01*
X40860Y239780D01*
X42172D01*
X42500Y239452D01*
Y238796D01*
X42172Y238468D01*
X40860D01*
X42500Y241420D02*
X40532D01*
X41516Y240436D01*
Y241748D01*
X46500Y141300D02*
Y143268D01*
X47484D01*
X47812Y142940D01*
Y142284D01*
X47484Y141956D01*
X46500D01*
X47156D02*
X47812Y141300D01*
X49452D02*
Y143268D01*
X48468Y142284D01*
X49780D01*
X141547Y145500D02*
Y147468D01*
X142531D01*
X142859Y147140D01*
Y146484D01*
X142531Y146156D01*
X141547D01*
X142203D02*
X142859Y145500D01*
X144827Y147468D02*
X143515D01*
Y146484D01*
X144171Y146812D01*
X144499D01*
X144827Y146484D01*
Y145828D01*
X144499Y145500D01*
X143843D01*
X143515Y145828D01*
X136047Y141000D02*
Y142968D01*
X137031D01*
X137359Y142640D01*
Y141984D01*
X137031Y141656D01*
X136047D01*
X136703D02*
X137359Y141000D01*
X139327Y142968D02*
X138671Y142640D01*
X138015Y141984D01*
Y141328D01*
X138343Y141000D01*
X138999D01*
X139327Y141328D01*
Y141656D01*
X138999Y141984D01*
X138015D01*
X123000Y255992D02*
Y257960D01*
X123984D01*
X124312Y257632D01*
Y256976D01*
X123984Y256648D01*
X123000D01*
X123656D02*
X124312Y255992D01*
X124968Y257960D02*
Y255992D01*
X125952D01*
X126280Y256320D01*
Y257632D01*
X125952Y257960D01*
X124968D01*
X126936Y256976D02*
X128248D01*
X127592Y257632D02*
Y256320D01*
X100500Y259000D02*
Y260968D01*
X101484D01*
X101812Y260640D01*
Y259984D01*
X101484Y259656D01*
X100500D01*
X101156D02*
X101812Y259000D01*
X102468Y260968D02*
Y259000D01*
X103452D01*
X103780Y259328D01*
Y260640D01*
X103452Y260968D01*
X102468D01*
X104436Y259984D02*
X105748D01*
X71500Y236468D02*
Y234828D01*
X71828Y234500D01*
X72484D01*
X72812Y234828D01*
Y236468D01*
X74780Y234500D02*
X73468D01*
X74780Y235812D01*
Y236140D01*
X74452Y236468D01*
X73796D01*
X73468Y236140D01*
X118000Y173000D02*
Y174968D01*
X118984D01*
X119312Y174640D01*
Y173984D01*
X118984Y173656D01*
X118000D01*
X118656D02*
X119312Y173000D01*
X121280D02*
X119968D01*
X121280Y174312D01*
Y174640D01*
X120952Y174968D01*
X120296D01*
X119968Y174640D01*
X128000Y191000D02*
Y192968D01*
X128984D01*
X129312Y192640D01*
Y191984D01*
X128984Y191656D01*
X128000D01*
X128656D02*
X129312Y191000D01*
X129968Y192640D02*
X130296Y192968D01*
X130952D01*
X131280Y192640D01*
Y192312D01*
X130952Y191984D01*
X130624D01*
X130952D01*
X131280Y191656D01*
Y191328D01*
X130952Y191000D01*
X130296D01*
X129968Y191328D01*
X145000Y189000D02*
Y190968D01*
X145984D01*
X146312Y190640D01*
Y189984D01*
X145984Y189656D01*
X145000D01*
X145656D02*
X146312Y189000D01*
X148280Y190640D02*
X147952Y190968D01*
X147296D01*
X146968Y190640D01*
Y189328D01*
X147296Y189000D01*
X147952D01*
X148280Y189328D01*
Y189984D01*
X147624D01*
X150904Y190968D02*
Y189000D01*
X152216D01*
X154183Y190968D02*
X152871D01*
Y189000D01*
X154183D01*
X152871Y189984D02*
X153527D01*
X154839Y190968D02*
Y189000D01*
X155823D01*
X156151Y189328D01*
Y190640D01*
X155823Y190968D01*
X154839D01*
X156807Y189000D02*
X157463D01*
X157135D01*
Y190968D01*
X156807Y190640D01*
X90812Y175640D02*
X90484Y175968D01*
X89828D01*
X89500Y175640D01*
Y174328D01*
X89828Y174000D01*
X90484D01*
X90812Y174328D01*
Y174984D01*
X90156D01*
X91468Y174000D02*
Y175968D01*
X92452D01*
X92780Y175640D01*
Y174984D01*
X92452Y174656D01*
X91468D01*
X94748Y175640D02*
X94420Y175968D01*
X93764D01*
X93436Y175640D01*
Y175312D01*
X93764Y174984D01*
X94420D01*
X94748Y174656D01*
Y174328D01*
X94420Y174000D01*
X93764D01*
X93436Y174328D01*
D61*
X53500Y226500D02*
X53500D01*
X54000Y219000D02*
X54000D01*
D62*
X135074Y280468D02*
X134681Y280861D01*
X133894D01*
X133500Y280468D01*
Y280074D01*
X133894Y279681D01*
X134681D01*
X135074Y279287D01*
Y278894D01*
X134681Y278500D01*
X133894D01*
X133500Y278894D01*
X135861Y280861D02*
Y278500D01*
X136649Y279287D01*
X137436Y278500D01*
Y280861D01*
X138223Y278500D02*
X139010D01*
X138617D01*
Y280861D01*
X138223Y280468D01*
X53074Y88464D02*
X51500D01*
Y86102D01*
X53074D01*
X51500Y87283D02*
X52287D01*
X53861Y87677D02*
X55436Y86102D01*
X54649Y86889D01*
X55436Y87677D01*
X53861Y86102D01*
X56616Y88070D02*
Y87677D01*
X56223D01*
X57010D01*
X56616D01*
Y86496D01*
X57010Y86102D01*
X59372D02*
X58584D01*
X58191Y86496D01*
Y87283D01*
X58584Y87677D01*
X59372D01*
X59765Y87283D01*
Y86889D01*
X58191D01*
X60552Y86102D02*
Y87677D01*
X61733D01*
X62126Y87283D01*
Y86102D01*
X62914D02*
X64094D01*
X64488Y86496D01*
X64094Y86889D01*
X63307D01*
X62914Y87283D01*
X63307Y87677D01*
X64488D01*
X65275Y86102D02*
X66062D01*
X65669D01*
Y87677D01*
X65275D01*
X67637Y86102D02*
X68424D01*
X68817Y86496D01*
Y87283D01*
X68424Y87677D01*
X67637D01*
X67243Y87283D01*
Y86496D01*
X67637Y86102D01*
X69604D02*
Y87677D01*
X70785D01*
X71179Y87283D01*
Y86102D01*
X49000Y194361D02*
Y193968D01*
X49787Y193181D01*
X50574Y193968D01*
Y194361D01*
X49787Y193181D02*
Y192000D01*
X52936D02*
X51361D01*
X52936Y193574D01*
Y193968D01*
X52542Y194361D01*
X51755D01*
X51361Y193968D01*
X52074Y200968D02*
X51681Y201361D01*
X50894D01*
X50500Y200968D01*
Y199394D01*
X50894Y199000D01*
X51681D01*
X52074Y199394D01*
X52861Y200968D02*
X53255Y201361D01*
X54042D01*
X54436Y200968D01*
Y200574D01*
X54042Y200181D01*
X53649D01*
X54042D01*
X54436Y199787D01*
Y199394D01*
X54042Y199000D01*
X53255D01*
X52861Y199394D01*
X55223Y199000D02*
X56010D01*
X55616D01*
Y201361D01*
X55223Y200968D01*
X79574Y200468D02*
X79181Y200861D01*
X78394D01*
X78000Y200468D01*
Y198894D01*
X78394Y198500D01*
X79181D01*
X79574Y198894D01*
X80361Y200468D02*
X80755Y200861D01*
X81542D01*
X81936Y200468D01*
Y200074D01*
X81542Y199681D01*
X81149D01*
X81542D01*
X81936Y199287D01*
Y198894D01*
X81542Y198500D01*
X80755D01*
X80361Y198894D01*
X82723Y200468D02*
X83116Y200861D01*
X83904D01*
X84297Y200468D01*
Y198894D01*
X83904Y198500D01*
X83116D01*
X82723Y198894D01*
Y200468D01*
X154000Y226500D02*
Y228861D01*
X155181D01*
X155574Y228468D01*
Y227681D01*
X155181Y227287D01*
X154000D01*
X154787D02*
X155574Y226500D01*
X156361Y228468D02*
X156755Y228861D01*
X157542D01*
X157936Y228468D01*
Y228074D01*
X157542Y227681D01*
X157149D01*
X157542D01*
X157936Y227287D01*
Y226894D01*
X157542Y226500D01*
X156755D01*
X156361Y226894D01*
X158723Y228468D02*
X159116Y228861D01*
X159904D01*
X160297Y228468D01*
Y226894D01*
X159904Y226500D01*
X159116D01*
X158723Y226894D01*
Y228468D01*
M02*
