%FSLAX25Y25*%
%MOIN*%
G70*
G01*
G75*
G04 Layer_Color=16711935*
%ADD10R,0.02756X0.03543*%
%ADD11R,0.06693X0.09449*%
%ADD12O,0.06693X0.01181*%
%ADD13O,0.06890X0.02165*%
%ADD14O,0.02165X0.06890*%
%ADD15R,0.15748X0.15748*%
%ADD16R,0.07874X0.15748*%
%ADD17R,0.03543X0.02756*%
%ADD18R,0.01575X0.05315*%
%ADD19R,0.05512X0.05512*%
%ADD20R,0.04724X0.03543*%
%ADD21R,0.05000X0.05000*%
%ADD22R,0.03937X0.05512*%
%ADD23R,0.03150X0.03543*%
%ADD24R,0.04331X0.06693*%
%ADD25R,0.03543X0.03150*%
%ADD26R,0.09449X0.06693*%
%ADD27C,0.01575*%
%ADD28C,0.01181*%
%ADD29C,0.01378*%
%ADD30C,0.00984*%
%ADD31C,0.01000*%
%ADD32C,0.00600*%
%ADD33C,0.07874*%
%ADD34O,0.05906X0.07874*%
%ADD35O,0.03937X0.06693*%
%ADD36R,0.05906X0.05906*%
%ADD37C,0.05906*%
%ADD38C,0.12598*%
%ADD39R,0.04724X0.15748*%
%ADD40C,0.03150*%
%ADD41C,0.01969*%
%ADD42C,0.04724*%
%ADD43O,0.01378X0.06693*%
%ADD44O,0.02756X0.01772*%
%ADD45R,0.05906X0.09449*%
%ADD46R,0.07677X0.10827*%
%ADD47R,0.11811X0.08268*%
%ADD48R,0.06299X0.03150*%
%ADD49O,0.02362X0.06693*%
%ADD50R,0.05001X0.01969*%
%ADD51R,0.01969X0.04801*%
%ADD52O,0.01969X0.00984*%
%ADD53O,0.00984X0.03937*%
%ADD54R,0.06496X0.09449*%
%ADD55R,0.04000X0.06000*%
%ADD56R,0.06000X0.04000*%
%ADD57C,0.03150*%
%ADD58C,0.02362*%
%ADD59C,0.00787*%
%ADD60C,0.00394*%
%ADD61C,0.00800*%
%ADD62C,0.00591*%
%ADD63R,0.03556X0.04343*%
%ADD64R,0.07493X0.10249*%
%ADD65O,0.07493X0.01981*%
%ADD66O,0.07284X0.02559*%
%ADD67O,0.02559X0.07284*%
%ADD68R,0.16548X0.16548*%
%ADD69R,0.08674X0.16548*%
%ADD70R,0.04343X0.03556*%
%ADD71R,0.01969X0.05709*%
%ADD72R,0.06312X0.06312*%
%ADD73R,0.05524X0.04343*%
%ADD74R,0.05800X0.05800*%
%ADD75R,0.04737X0.06312*%
%ADD76R,0.03950X0.04343*%
%ADD77R,0.05131X0.07493*%
%ADD78R,0.04343X0.03950*%
%ADD79R,0.10249X0.07493*%
%ADD80C,0.08674*%
%ADD81O,0.06706X0.08674*%
%ADD82O,0.04737X0.07493*%
%ADD83R,0.06706X0.06706*%
%ADD84C,0.06706*%
%ADD85C,0.13398*%
%ADD86R,0.05524X0.16548*%
%ADD87C,0.03950*%
%ADD88C,0.02769*%
%ADD89C,0.05524*%
%ADD90C,0.02000*%
%ADD91C,0.00500*%
D28*
X68898Y51181D02*
Y73228D01*
X165354D01*
X64961Y31496D02*
X68898Y51181D01*
X35433Y31496D02*
Y285827D01*
X165354D01*
Y73228D02*
Y285827D01*
X35433Y31496D02*
X64961D01*
X68898Y51181D02*
Y73228D01*
X165354D01*
X64961Y31496D02*
X68898Y51181D01*
X35433Y31496D02*
Y285827D01*
X165354D01*
Y73228D02*
Y285827D01*
X35433Y31496D02*
X64961D01*
D31*
X165354Y287417D02*
Y320000D01*
X35433Y287417D02*
Y320000D01*
X114389Y319000D02*
X165354D01*
X35433D02*
X83198D01*
X159354Y321000D02*
X165354Y319000D01*
X159354Y317000D02*
X165354Y319000D01*
X35433D02*
X41433Y317000D01*
X35433Y319000D02*
X41433Y321000D01*
X166945Y73228D02*
X187500D01*
X166945Y285827D02*
X187500D01*
X186500Y73228D02*
Y162332D01*
Y193523D02*
Y285827D01*
Y73228D02*
X188500Y79228D01*
X184500D02*
X186500Y73228D01*
X184500Y279827D02*
X186500Y285827D01*
X188500Y279827D01*
X16500Y31496D02*
X63370D01*
X16500Y285827D02*
X33843D01*
X17500Y31496D02*
Y141466D01*
Y172657D02*
Y285827D01*
Y31496D02*
X19500Y37496D01*
X15500D02*
X17500Y31496D01*
X15500Y279827D02*
X17500Y285827D01*
X19500Y279827D01*
X165354Y29500D02*
Y71638D01*
X68898Y29500D02*
Y71638D01*
X131122Y30500D02*
X165354D01*
X68898D02*
X99931D01*
X159354Y32500D02*
X165354Y30500D01*
X159354Y28500D02*
X165354Y30500D01*
X68898D02*
X74898Y28500D01*
X68898Y30500D02*
X74898Y32500D01*
X38780Y284071D02*
Y293500D01*
X35433Y287417D02*
Y293500D01*
X25433Y292500D02*
X35433D01*
X38780D02*
X48779D01*
X29433Y294500D02*
X35433Y292500D01*
X29433Y290500D02*
X35433Y292500D01*
X38780D02*
X44780Y290500D01*
X38780Y292500D02*
X44780Y294500D01*
X165354Y287417D02*
Y320000D01*
X35433Y287417D02*
Y320000D01*
X114389Y319000D02*
X165354D01*
X35433D02*
X83198D01*
X159354Y321000D02*
X165354Y319000D01*
X159354Y317000D02*
X165354Y319000D01*
X35433D02*
X41433Y317000D01*
X35433Y319000D02*
X41433Y321000D01*
X166945Y73228D02*
X187500D01*
X166945Y285827D02*
X187500D01*
X186500Y73228D02*
Y162332D01*
Y193523D02*
Y285827D01*
Y73228D02*
X188500Y79228D01*
X184500D02*
X186500Y73228D01*
X184500Y279827D02*
X186500Y285827D01*
X188500Y279827D01*
X16500Y31496D02*
X63370D01*
X16500Y285827D02*
X33843D01*
X17500Y31496D02*
Y141466D01*
Y172657D02*
Y285827D01*
Y31496D02*
X19500Y37496D01*
X15500D02*
X17500Y31496D01*
X15500Y279827D02*
X17500Y285827D01*
X19500Y279827D01*
X165354Y29500D02*
Y71638D01*
X68898Y29500D02*
Y71638D01*
X131122Y30500D02*
X165354D01*
X68898D02*
X99931D01*
X159354Y32500D02*
X165354Y30500D01*
X159354Y28500D02*
X165354Y30500D01*
X68898D02*
X74898Y28500D01*
X68898Y30500D02*
X74898Y32500D01*
X38780Y284071D02*
Y293500D01*
X35433Y287417D02*
Y293500D01*
X25433Y292500D02*
X35433D01*
X38780D02*
X48779D01*
X29433Y294500D02*
X35433Y292500D01*
X29433Y290500D02*
X35433Y292500D01*
X38780D02*
X44780Y290500D01*
X38780Y292500D02*
X44780Y294500D01*
D32*
X84798Y319400D02*
X85798Y320399D01*
X87797D01*
X88797Y319400D01*
Y318400D01*
X87797Y317400D01*
X86798D01*
X87797D01*
X88797Y316401D01*
Y315401D01*
X87797Y314401D01*
X85798D01*
X84798Y315401D01*
X90796Y319400D02*
X91796Y320399D01*
X93795D01*
X94795Y319400D01*
Y318400D01*
X93795Y317400D01*
X92796D01*
X93795D01*
X94795Y316401D01*
Y315401D01*
X93795Y314401D01*
X91796D01*
X90796Y315401D01*
X97794Y313402D02*
X98794Y314401D01*
Y315401D01*
X97794D01*
Y314401D01*
X98794D01*
X97794Y313402D01*
X96794Y312402D01*
X102792Y319400D02*
X103792Y320399D01*
X105791D01*
X106791Y319400D01*
Y315401D01*
X105791Y314401D01*
X103792D01*
X102792Y315401D01*
Y319400D01*
X108791D02*
X109790Y320399D01*
X111790D01*
X112789Y319400D01*
Y315401D01*
X111790Y314401D01*
X109790D01*
X108791Y315401D01*
Y319400D01*
X185101Y167931D02*
Y163932D01*
X188100D01*
X187100Y165931D01*
Y166931D01*
X188100Y167931D01*
X190099D01*
X191099Y166931D01*
Y164932D01*
X190099Y163932D01*
X191099Y172929D02*
X185101D01*
X188100Y169930D01*
Y173929D01*
X192098Y176928D02*
X191099Y177927D01*
X190099D01*
Y176928D01*
X191099D01*
Y177927D01*
X192098Y176928D01*
X193098Y175928D01*
X186100Y181926D02*
X185101Y182926D01*
Y184925D01*
X186100Y185925D01*
X190099D01*
X191099Y184925D01*
Y182926D01*
X190099Y181926D01*
X186100D01*
Y187924D02*
X185101Y188924D01*
Y190923D01*
X186100Y191923D01*
X190099D01*
X191099Y190923D01*
Y188924D01*
X190099Y187924D01*
X186100D01*
X16101Y147065D02*
X17100Y145065D01*
X19100Y143066D01*
X21099D01*
X22099Y144066D01*
Y146065D01*
X21099Y147065D01*
X20099D01*
X19100Y146065D01*
Y143066D01*
X22099Y152063D02*
X16101D01*
X19100Y149064D01*
Y153063D01*
X23098Y156062D02*
X22099Y157061D01*
X21099D01*
Y156062D01*
X22099D01*
Y157061D01*
X23098Y156062D01*
X24098Y155062D01*
X16101Y165059D02*
X17100Y163059D01*
X19100Y161060D01*
X21099D01*
X22099Y162060D01*
Y164059D01*
X21099Y165059D01*
X20099D01*
X19100Y164059D01*
Y161060D01*
X17100Y167058D02*
X16101Y168058D01*
Y170057D01*
X17100Y171057D01*
X21099D01*
X22099Y170057D01*
Y168058D01*
X21099Y167058D01*
X17100D01*
X105529Y25901D02*
X101531D01*
X105529Y29900D01*
Y30900D01*
X104530Y31899D01*
X102530D01*
X101531Y30900D01*
X110528Y25901D02*
Y31899D01*
X107529Y28900D01*
X111527D01*
X114526Y24902D02*
X115526Y25901D01*
Y26901D01*
X114526D01*
Y25901D01*
X115526D01*
X114526Y24902D01*
X113527Y23902D01*
X123523Y31899D02*
X119525D01*
Y28900D01*
X121524Y29900D01*
X122524D01*
X123523Y28900D01*
Y26901D01*
X122524Y25901D01*
X120524D01*
X119525Y26901D01*
X125523Y30900D02*
X126522Y31899D01*
X128522D01*
X129522Y30900D01*
Y26901D01*
X128522Y25901D01*
X126522D01*
X125523Y26901D01*
Y30900D01*
X24510Y306696D02*
X25510Y307696D01*
X27509D01*
X28509Y306696D01*
Y302697D01*
X27509Y301697D01*
X25510D01*
X24510Y302697D01*
Y306696D01*
X31508Y300698D02*
X32507Y301697D01*
Y302697D01*
X31508D01*
Y301697D01*
X32507D01*
X31508Y300698D01*
X30508Y299698D01*
X36506Y306696D02*
X37506Y307696D01*
X39505D01*
X40505Y306696D01*
Y305696D01*
X39505Y304696D01*
X40505Y303697D01*
Y302697D01*
X39505Y301697D01*
X37506D01*
X36506Y302697D01*
Y303697D01*
X37506Y304696D01*
X36506Y305696D01*
Y306696D01*
X37506Y304696D02*
X39505D01*
X46503Y307696D02*
X42504D01*
Y304696D01*
X44503Y305696D01*
X45503D01*
X46503Y304696D01*
Y302697D01*
X45503Y301697D01*
X43504D01*
X42504Y302697D01*
X84798Y319400D02*
X85798Y320399D01*
X87797D01*
X88797Y319400D01*
Y318400D01*
X87797Y317400D01*
X86798D01*
X87797D01*
X88797Y316401D01*
Y315401D01*
X87797Y314401D01*
X85798D01*
X84798Y315401D01*
X90796Y319400D02*
X91796Y320399D01*
X93795D01*
X94795Y319400D01*
Y318400D01*
X93795Y317400D01*
X92796D01*
X93795D01*
X94795Y316401D01*
Y315401D01*
X93795Y314401D01*
X91796D01*
X90796Y315401D01*
X97794Y313402D02*
X98794Y314401D01*
Y315401D01*
X97794D01*
Y314401D01*
X98794D01*
X97794Y313402D01*
X96794Y312402D01*
X102792Y319400D02*
X103792Y320399D01*
X105791D01*
X106791Y319400D01*
Y315401D01*
X105791Y314401D01*
X103792D01*
X102792Y315401D01*
Y319400D01*
X108791D02*
X109790Y320399D01*
X111790D01*
X112789Y319400D01*
Y315401D01*
X111790Y314401D01*
X109790D01*
X108791Y315401D01*
Y319400D01*
X185101Y167931D02*
Y163932D01*
X188100D01*
X187100Y165931D01*
Y166931D01*
X188100Y167931D01*
X190099D01*
X191099Y166931D01*
Y164932D01*
X190099Y163932D01*
X191099Y172929D02*
X185101D01*
X188100Y169930D01*
Y173929D01*
X192098Y176928D02*
X191099Y177927D01*
X190099D01*
Y176928D01*
X191099D01*
Y177927D01*
X192098Y176928D01*
X193098Y175928D01*
X186100Y181926D02*
X185101Y182926D01*
Y184925D01*
X186100Y185925D01*
X190099D01*
X191099Y184925D01*
Y182926D01*
X190099Y181926D01*
X186100D01*
Y187924D02*
X185101Y188924D01*
Y190923D01*
X186100Y191923D01*
X190099D01*
X191099Y190923D01*
Y188924D01*
X190099Y187924D01*
X186100D01*
X16101Y147065D02*
X17100Y145065D01*
X19100Y143066D01*
X21099D01*
X22099Y144066D01*
Y146065D01*
X21099Y147065D01*
X20099D01*
X19100Y146065D01*
Y143066D01*
X22099Y152063D02*
X16101D01*
X19100Y149064D01*
Y153063D01*
X23098Y156062D02*
X22099Y157061D01*
X21099D01*
Y156062D01*
X22099D01*
Y157061D01*
X23098Y156062D01*
X24098Y155062D01*
X16101Y165059D02*
X17100Y163059D01*
X19100Y161060D01*
X21099D01*
X22099Y162060D01*
Y164059D01*
X21099Y165059D01*
X20099D01*
X19100Y164059D01*
Y161060D01*
X17100Y167058D02*
X16101Y168058D01*
Y170057D01*
X17100Y171057D01*
X21099D01*
X22099Y170057D01*
Y168058D01*
X21099Y167058D01*
X17100D01*
X105529Y25901D02*
X101531D01*
X105529Y29900D01*
Y30900D01*
X104530Y31899D01*
X102530D01*
X101531Y30900D01*
X110528Y25901D02*
Y31899D01*
X107529Y28900D01*
X111527D01*
X114526Y24902D02*
X115526Y25901D01*
Y26901D01*
X114526D01*
Y25901D01*
X115526D01*
X114526Y24902D01*
X113527Y23902D01*
X123523Y31899D02*
X119525D01*
Y28900D01*
X121524Y29900D01*
X122524D01*
X123523Y28900D01*
Y26901D01*
X122524Y25901D01*
X120524D01*
X119525Y26901D01*
X125523Y30900D02*
X126522Y31899D01*
X128522D01*
X129522Y30900D01*
Y26901D01*
X128522Y25901D01*
X126522D01*
X125523Y26901D01*
Y30900D01*
X24510Y306696D02*
X25510Y307696D01*
X27509D01*
X28509Y306696D01*
Y302697D01*
X27509Y301697D01*
X25510D01*
X24510Y302697D01*
Y306696D01*
X31508Y300698D02*
X32507Y301697D01*
Y302697D01*
X31508D01*
Y301697D01*
X32507D01*
X31508Y300698D01*
X30508Y299698D01*
X36506Y306696D02*
X37506Y307696D01*
X39505D01*
X40505Y306696D01*
Y305696D01*
X39505Y304696D01*
X40505Y303697D01*
Y302697D01*
X39505Y301697D01*
X37506D01*
X36506Y302697D01*
Y303697D01*
X37506Y304696D01*
X36506Y305696D01*
Y306696D01*
X37506Y304696D02*
X39505D01*
X46503Y307696D02*
X42504D01*
Y304696D01*
X44503Y305696D01*
X45503D01*
X46503Y304696D01*
Y302697D01*
X45503Y301697D01*
X43504D01*
X42504Y302697D01*
M02*
