%FSLAX25Y25*%
%MOIN*%
G70*
G01*
G75*
G04 Layer_Color=32896*
%ADD10R,0.02756X0.03543*%
%ADD11R,0.06693X0.09449*%
%ADD12O,0.06693X0.01181*%
%ADD13O,0.06890X0.02165*%
%ADD14O,0.02165X0.06890*%
%ADD15R,0.15748X0.15748*%
%ADD16R,0.07874X0.15748*%
%ADD17R,0.03543X0.02756*%
%ADD18R,0.01575X0.05315*%
%ADD19R,0.05512X0.05512*%
%ADD20R,0.04724X0.03543*%
%ADD21R,0.05000X0.05000*%
%ADD22R,0.03937X0.05512*%
%ADD23R,0.03150X0.03543*%
%ADD24R,0.04331X0.06693*%
%ADD25R,0.03543X0.03150*%
%ADD26R,0.09449X0.06693*%
%ADD27C,0.01575*%
%ADD28C,0.01181*%
%ADD29C,0.01378*%
%ADD30C,0.00984*%
%ADD31C,0.01000*%
%ADD32C,0.00600*%
%ADD33C,0.07874*%
%ADD34O,0.05906X0.07874*%
%ADD35O,0.03937X0.06693*%
%ADD36R,0.05906X0.05906*%
%ADD37C,0.05906*%
%ADD38C,0.12598*%
%ADD39R,0.04724X0.15748*%
%ADD40C,0.03150*%
%ADD41C,0.01969*%
%ADD42C,0.04724*%
%ADD43O,0.01378X0.06693*%
%ADD44O,0.02756X0.01772*%
%ADD45R,0.05906X0.09449*%
%ADD46R,0.07677X0.10827*%
%ADD47R,0.11811X0.08268*%
%ADD48R,0.06299X0.03150*%
%ADD49O,0.02362X0.06693*%
%ADD50R,0.05001X0.01969*%
%ADD51R,0.01969X0.04801*%
%ADD52O,0.01969X0.00984*%
%ADD53O,0.00984X0.03937*%
%ADD54R,0.06496X0.09449*%
%ADD55R,0.04000X0.06000*%
%ADD56R,0.06000X0.04000*%
%ADD57C,0.03150*%
%ADD58C,0.02362*%
%ADD59C,0.00787*%
%ADD60C,0.00394*%
%ADD61C,0.00800*%
%ADD62C,0.00591*%
%ADD63R,0.03556X0.04343*%
%ADD64R,0.07493X0.10249*%
%ADD65O,0.07493X0.01981*%
%ADD66O,0.07284X0.02559*%
%ADD67O,0.02559X0.07284*%
%ADD68R,0.16548X0.16548*%
%ADD69R,0.08674X0.16548*%
%ADD70R,0.04343X0.03556*%
%ADD71R,0.01969X0.05709*%
%ADD72R,0.06312X0.06312*%
%ADD73R,0.05524X0.04343*%
%ADD74R,0.05800X0.05800*%
%ADD75R,0.04737X0.06312*%
%ADD76R,0.03950X0.04343*%
%ADD77R,0.05131X0.07493*%
%ADD78R,0.04343X0.03950*%
%ADD79R,0.10249X0.07493*%
%ADD80C,0.08674*%
%ADD81O,0.06706X0.08674*%
%ADD82O,0.04737X0.07493*%
%ADD83R,0.06706X0.06706*%
%ADD84C,0.06706*%
%ADD85C,0.13398*%
%ADD86R,0.05524X0.16548*%
%ADD87C,0.03950*%
%ADD88C,0.02769*%
%ADD89C,0.05524*%
%ADD90C,0.02000*%
%ADD91C,0.00500*%
D28*
X68898Y51181D02*
Y73228D01*
X165354D01*
X64961Y31496D02*
X68898Y51181D01*
X35433Y31496D02*
Y285827D01*
X165354D01*
Y73228D02*
Y285827D01*
X35433Y31496D02*
X64961D01*
D30*
X54681Y201220D02*
G03*
X54681Y201220I-492J0D01*
G01*
X41740Y49898D02*
G03*
X41740Y49898I-492J0D01*
G01*
X118839Y199925D02*
G03*
X118839Y199925I-492J0D01*
G01*
X129842Y258201D02*
G03*
X129842Y258201I-492J0D01*
G01*
D31*
X149500Y96000D02*
Y111000D01*
Y151000D02*
Y166000D01*
X44500Y96000D02*
Y166000D01*
X165354Y287417D02*
Y320000D01*
X35433Y287417D02*
Y320000D01*
X114389Y319000D02*
X165354D01*
X35433D02*
X83198D01*
X159354Y321000D02*
X165354Y319000D01*
X159354Y317000D02*
X165354Y319000D01*
X35433D02*
X41433Y317000D01*
X35433Y319000D02*
X41433Y321000D01*
X166945Y73228D02*
X187500D01*
X166945Y285827D02*
X187500D01*
X186500Y73228D02*
Y162332D01*
Y193523D02*
Y285827D01*
Y73228D02*
X188500Y79228D01*
X184500D02*
X186500Y73228D01*
X184500Y279827D02*
X186500Y285827D01*
X188500Y279827D01*
X16500Y31496D02*
X63370D01*
X16500Y285827D02*
X33843D01*
X17500Y31496D02*
Y141466D01*
Y172657D02*
Y285827D01*
Y31496D02*
X19500Y37496D01*
X15500D02*
X17500Y31496D01*
X15500Y279827D02*
X17500Y285827D01*
X19500Y279827D01*
X165354Y29500D02*
Y71638D01*
X68898Y29500D02*
Y71638D01*
X131122Y30500D02*
X165354D01*
X68898D02*
X99931D01*
X159354Y32500D02*
X165354Y30500D01*
X159354Y28500D02*
X165354Y30500D01*
X68898D02*
X74898Y28500D01*
X68898Y30500D02*
X74898Y32500D01*
X38780Y284071D02*
Y293500D01*
X35433Y287417D02*
Y293500D01*
X25433Y292500D02*
X35433D01*
X38780D02*
X48779D01*
X29433Y294500D02*
X35433Y292500D01*
X29433Y290500D02*
X35433Y292500D01*
X38780D02*
X44780Y290500D01*
X38780Y292500D02*
X44780Y294500D01*
D32*
X84798Y319400D02*
X85798Y320399D01*
X87797D01*
X88797Y319400D01*
Y318400D01*
X87797Y317400D01*
X86798D01*
X87797D01*
X88797Y316401D01*
Y315401D01*
X87797Y314401D01*
X85798D01*
X84798Y315401D01*
X90796Y319400D02*
X91796Y320399D01*
X93795D01*
X94795Y319400D01*
Y318400D01*
X93795Y317400D01*
X92796D01*
X93795D01*
X94795Y316401D01*
Y315401D01*
X93795Y314401D01*
X91796D01*
X90796Y315401D01*
X97794Y313402D02*
X98794Y314401D01*
Y315401D01*
X97794D01*
Y314401D01*
X98794D01*
X97794Y313402D01*
X96794Y312402D01*
X102792Y319400D02*
X103792Y320399D01*
X105791D01*
X106791Y319400D01*
Y315401D01*
X105791Y314401D01*
X103792D01*
X102792Y315401D01*
Y319400D01*
X108791D02*
X109790Y320399D01*
X111790D01*
X112789Y319400D01*
Y315401D01*
X111790Y314401D01*
X109790D01*
X108791Y315401D01*
Y319400D01*
X185101Y167931D02*
Y163932D01*
X188100D01*
X187100Y165931D01*
Y166931D01*
X188100Y167931D01*
X190099D01*
X191099Y166931D01*
Y164932D01*
X190099Y163932D01*
X191099Y172929D02*
X185101D01*
X188100Y169930D01*
Y173929D01*
X192098Y176928D02*
X191099Y177927D01*
X190099D01*
Y176928D01*
X191099D01*
Y177927D01*
X192098Y176928D01*
X193098Y175928D01*
X186100Y181926D02*
X185101Y182926D01*
Y184925D01*
X186100Y185925D01*
X190099D01*
X191099Y184925D01*
Y182926D01*
X190099Y181926D01*
X186100D01*
Y187924D02*
X185101Y188924D01*
Y190923D01*
X186100Y191923D01*
X190099D01*
X191099Y190923D01*
Y188924D01*
X190099Y187924D01*
X186100D01*
X16101Y147065D02*
X17100Y145065D01*
X19100Y143066D01*
X21099D01*
X22099Y144066D01*
Y146065D01*
X21099Y147065D01*
X20099D01*
X19100Y146065D01*
Y143066D01*
X22099Y152063D02*
X16101D01*
X19100Y149064D01*
Y153063D01*
X23098Y156062D02*
X22099Y157061D01*
X21099D01*
Y156062D01*
X22099D01*
Y157061D01*
X23098Y156062D01*
X24098Y155062D01*
X16101Y165059D02*
X17100Y163059D01*
X19100Y161060D01*
X21099D01*
X22099Y162060D01*
Y164059D01*
X21099Y165059D01*
X20099D01*
X19100Y164059D01*
Y161060D01*
X17100Y167058D02*
X16101Y168058D01*
Y170057D01*
X17100Y171057D01*
X21099D01*
X22099Y170057D01*
Y168058D01*
X21099Y167058D01*
X17100D01*
X105529Y25901D02*
X101531D01*
X105529Y29900D01*
Y30900D01*
X104530Y31899D01*
X102530D01*
X101531Y30900D01*
X110528Y25901D02*
Y31899D01*
X107529Y28900D01*
X111527D01*
X114526Y24902D02*
X115526Y25901D01*
Y26901D01*
X114526D01*
Y25901D01*
X115526D01*
X114526Y24902D01*
X113527Y23902D01*
X123523Y31899D02*
X119525D01*
Y28900D01*
X121524Y29900D01*
X122524D01*
X123523Y28900D01*
Y26901D01*
X122524Y25901D01*
X120524D01*
X119525Y26901D01*
X125523Y30900D02*
X126522Y31899D01*
X128522D01*
X129522Y30900D01*
Y26901D01*
X128522Y25901D01*
X126522D01*
X125523Y26901D01*
Y30900D01*
X24510Y306696D02*
X25510Y307696D01*
X27509D01*
X28509Y306696D01*
Y302697D01*
X27509Y301697D01*
X25510D01*
X24510Y302697D01*
Y306696D01*
X31508Y300698D02*
X32507Y301697D01*
Y302697D01*
X31508D01*
Y301697D01*
X32507D01*
X31508Y300698D01*
X30508Y299698D01*
X36506Y306696D02*
X37506Y307696D01*
X39505D01*
X40505Y306696D01*
Y305696D01*
X39505Y304696D01*
X40505Y303697D01*
Y302697D01*
X39505Y301697D01*
X37506D01*
X36506Y302697D01*
Y303697D01*
X37506Y304696D01*
X36506Y305696D01*
Y306696D01*
X37506Y304696D02*
X39505D01*
X46503Y307696D02*
X42504D01*
Y304696D01*
X44503Y305696D01*
X45503D01*
X46503Y304696D01*
Y302697D01*
X45503Y301697D01*
X43504D01*
X42504Y302697D01*
D58*
X61079Y192362D02*
G03*
X61079Y192362I-1181J0D01*
G01*
X115374Y208784D02*
G03*
X115374Y208784I-1181J0D01*
G01*
D59*
X76039Y183701D02*
Y196299D01*
X55961Y183701D02*
Y196299D01*
Y183701D02*
X76039D01*
X55961Y196299D02*
X76039D01*
X43807Y49307D02*
Y49602D01*
Y49307D02*
X50008D01*
X50992D02*
X57193D01*
Y49602D01*
Y62398D02*
Y62693D01*
X50992D02*
X57193D01*
X43807Y62398D02*
Y62693D01*
X50008D01*
X155622Y225213D02*
Y226787D01*
X158378Y225213D02*
Y226787D01*
X106378Y238213D02*
Y239787D01*
X103622Y238213D02*
Y239787D01*
X111713Y240622D02*
X113287D01*
X111713Y243378D02*
X113287D01*
X85378Y248713D02*
Y250287D01*
X82622Y248713D02*
Y250287D01*
X85378Y259213D02*
Y260787D01*
X82622Y259213D02*
Y260787D01*
X160843Y246480D02*
Y256520D01*
X96870Y204847D02*
X118130D01*
X96870Y223153D02*
X118130D01*
Y204847D02*
Y223153D01*
X96870Y204847D02*
Y223153D01*
X126791Y258004D02*
Y258791D01*
X123051D02*
X126791D01*
X113209D02*
X116949D01*
X113209Y258004D02*
Y258791D01*
Y245209D02*
Y245996D01*
Y245209D02*
X116949D01*
X126791D02*
Y245996D01*
X123051Y245209D02*
X126791D01*
D60*
X134000Y243140D02*
X133672Y243468D01*
X133016D01*
X132688Y243140D01*
Y242812D01*
X133016Y242484D01*
X133344D01*
X133016D01*
X132688Y242156D01*
Y241828D01*
X133016Y241500D01*
X133672D01*
X134000Y241828D01*
X132032Y241500D02*
Y241828D01*
X131704D01*
Y241500D01*
X132032D01*
X129408D02*
Y243468D01*
X130392Y242484D01*
X129080D01*
X128424Y242812D02*
X127768Y241500D01*
X127112Y242812D01*
X126456Y243468D02*
Y241500D01*
X125473D01*
X125145Y241828D01*
Y242156D01*
X125473Y242484D01*
X126456D01*
X125473D01*
X125145Y242812D01*
Y243140D01*
X125473Y243468D01*
X126456D01*
X124161Y241500D02*
X123505D01*
X123177Y241828D01*
Y242484D01*
X123505Y242812D01*
X124161D01*
X124489Y242484D01*
Y241828D01*
X124161Y241500D01*
X122193D02*
X121537D01*
X121209Y241828D01*
Y242484D01*
X121537Y242812D01*
X122193D01*
X122521Y242484D01*
Y241828D01*
X122193Y241500D01*
X120553D02*
X119569D01*
X119241Y241828D01*
X119569Y242156D01*
X120225D01*
X120553Y242484D01*
X120225Y242812D01*
X119241D01*
X118257Y243140D02*
Y242812D01*
X118585D01*
X117929D01*
X118257D01*
Y241828D01*
X117929Y241500D01*
X150000Y226000D02*
X148688D01*
X148032Y225344D01*
X148688Y224688D01*
X150000D01*
X149016D01*
Y226000D01*
X148360Y222720D02*
X148032Y223048D01*
Y223704D01*
X148360Y224032D01*
X149672D01*
X150000Y223704D01*
Y223048D01*
X149672Y222720D01*
X148360Y220752D02*
X148032Y221080D01*
Y221736D01*
X148360Y222064D01*
X149672D01*
X150000Y221736D01*
Y221080D01*
X149672Y220752D01*
X148032Y218784D02*
Y220096D01*
X150000D01*
Y218784D01*
X149016Y220096D02*
Y219441D01*
X148032Y218129D02*
X150000D01*
Y216817D01*
Y216161D02*
Y215505D01*
Y215833D01*
X148032D01*
X148360Y216161D01*
X162812Y239360D02*
X162484Y239032D01*
X161828D01*
X161500Y239360D01*
Y240672D01*
X161828Y241000D01*
X162484D01*
X162812Y240672D01*
X163468Y241000D02*
X164124D01*
X163796D01*
Y239032D01*
X163468Y239360D01*
X166420Y241000D02*
X165108D01*
X166420Y239688D01*
Y239360D01*
X166092Y239032D01*
X165436D01*
X165108Y239360D01*
X116688Y263140D02*
X117016Y263468D01*
X117672D01*
X118000Y263140D01*
Y261828D01*
X117672Y261500D01*
X117016D01*
X116688Y261828D01*
X116032Y261500D02*
X115376D01*
X115704D01*
Y263468D01*
X116032Y263140D01*
X114392D02*
X114064Y263468D01*
X113408D01*
X113080Y263140D01*
Y262812D01*
X113408Y262484D01*
X113736D01*
X113408D01*
X113080Y262156D01*
Y261828D01*
X113408Y261500D01*
X114064D01*
X114392Y261828D01*
X95688Y259640D02*
X96016Y259968D01*
X96672D01*
X97000Y259640D01*
Y258328D01*
X96672Y258000D01*
X96016D01*
X95688Y258328D01*
X95032Y258000D02*
X94376D01*
X94704D01*
Y259968D01*
X95032Y259640D01*
X92408Y258000D02*
Y259968D01*
X93392Y258984D01*
X92080D01*
X45008Y250532D02*
X45664D01*
X45336D01*
Y252500D01*
X45008D01*
X45664D01*
X47960Y250860D02*
X47632Y250532D01*
X46976D01*
X46648Y250860D01*
Y251188D01*
X46976Y251516D01*
X47632D01*
X47960Y251844D01*
Y252172D01*
X47632Y252500D01*
X46976D01*
X46648Y252172D01*
X48616Y252500D02*
Y250532D01*
X49599D01*
X49927Y250860D01*
Y251516D01*
X49599Y251844D01*
X48616D01*
X162532Y259000D02*
X164500D01*
Y257688D01*
Y255720D02*
Y257032D01*
X163188Y255720D01*
X162860D01*
X162532Y256048D01*
Y256704D01*
X162860Y257032D01*
X79500Y259500D02*
Y261468D01*
X78516D01*
X78188Y261140D01*
Y260484D01*
X78516Y260156D01*
X79500D01*
X78844D02*
X78188Y259500D01*
X77532D02*
X76876D01*
X77204D01*
Y261468D01*
X77532Y261140D01*
X75892Y259500D02*
X75236D01*
X75564D01*
Y261468D01*
X75892Y261140D01*
X86500Y241500D02*
Y243468D01*
X85516D01*
X85188Y243140D01*
Y242484D01*
X85516Y242156D01*
X86500D01*
X85844D02*
X85188Y241500D01*
X84532D02*
X83876D01*
X84204D01*
Y243468D01*
X84532Y243140D01*
X81580Y241500D02*
X82892D01*
X81580Y242812D01*
Y243140D01*
X81908Y243468D01*
X82564D01*
X82892Y243140D01*
X92532Y219188D02*
Y220500D01*
X93516D01*
Y219844D01*
Y220500D01*
X94500D01*
Y218532D02*
Y217876D01*
Y218204D01*
X92532D01*
Y218532D01*
X93188Y216564D02*
Y215908D01*
X93516Y215580D01*
X94500D01*
Y216564D01*
X94172Y216892D01*
X93844Y216564D01*
Y215580D01*
X94500Y214924D02*
Y213941D01*
X94172Y213613D01*
X93844Y213941D01*
Y214596D01*
X93516Y214924D01*
X93188Y214596D01*
Y213613D01*
X92532Y212957D02*
X94500D01*
X93516D01*
X93188Y212629D01*
Y211973D01*
X93516Y211645D01*
X94500D01*
Y209021D02*
Y208365D01*
Y208693D01*
X92532D01*
X92860Y209021D01*
X56188Y66640D02*
X56516Y66968D01*
X57172D01*
X57500Y66640D01*
Y66312D01*
X57172Y65984D01*
X56516D01*
X56188Y65656D01*
Y65328D01*
X56516Y65000D01*
X57172D01*
X57500Y65328D01*
X55532Y66968D02*
Y65000D01*
Y65984D01*
X54220D01*
Y66968D01*
Y65000D01*
X53564Y66968D02*
X52252D01*
X52908D01*
Y65000D01*
X50284D02*
X51596D01*
X50284Y66312D01*
Y66640D01*
X50612Y66968D01*
X51268D01*
X51596Y66640D01*
X49629Y65000D02*
X48973D01*
X49301D01*
Y66968D01*
X49629Y66640D01*
X119500Y236000D02*
Y237968D01*
X118516D01*
X118188Y237640D01*
Y236984D01*
X118516Y236656D01*
X119500D01*
X118844D02*
X118188Y236000D01*
X117532D02*
X116876D01*
X117204D01*
Y237968D01*
X117532Y237640D01*
X115892D02*
X115564Y237968D01*
X114908D01*
X114580Y237640D01*
Y237312D01*
X114908Y236984D01*
X115236D01*
X114908D01*
X114580Y236656D01*
Y236328D01*
X114908Y236000D01*
X115564D01*
X115892Y236328D01*
X102000Y238000D02*
Y239968D01*
X101016D01*
X100688Y239640D01*
Y238984D01*
X101016Y238656D01*
X102000D01*
X101344D02*
X100688Y238000D01*
X100032D02*
X99376D01*
X99704D01*
Y239968D01*
X100032Y239640D01*
X97408Y238000D02*
Y239968D01*
X98392Y238984D01*
X97080D01*
D62*
X76500Y210561D02*
Y208594D01*
X76106Y208200D01*
X75319D01*
X74926Y208594D01*
Y210561D01*
X74139Y210168D02*
X73745Y210561D01*
X72958D01*
X72564Y210168D01*
Y209774D01*
X72958Y209381D01*
X73351D01*
X72958D01*
X72564Y208987D01*
Y208594D01*
X72958Y208200D01*
X73745D01*
X74139Y208594D01*
X154000Y229000D02*
X151639D01*
Y227819D01*
X152032Y227426D01*
X152819D01*
X153213Y227819D01*
Y229000D01*
Y228213D02*
X154000Y227426D01*
X152032Y226639D02*
X151639Y226245D01*
Y225458D01*
X152032Y225064D01*
X152426D01*
X152819Y225458D01*
Y225851D01*
Y225458D01*
X153213Y225064D01*
X153606D01*
X154000Y225458D01*
Y226245D01*
X153606Y226639D01*
X154000Y224277D02*
Y223490D01*
Y223884D01*
X151639D01*
X152032Y224277D01*
X152300Y172000D02*
Y174361D01*
X151119D01*
X150726Y173968D01*
Y173181D01*
X151119Y172787D01*
X152300D01*
X151513D02*
X150726Y172000D01*
X148364Y174361D02*
X149939D01*
Y173181D01*
X149151D01*
X149939D01*
Y172000D01*
X147577D02*
X146790D01*
X147184D01*
Y174361D01*
X147577Y173968D01*
D90*
X50500Y156000D02*
G03*
X50500Y156000I-1000J0D01*
G01*
D91*
X123650Y226905D02*
Y228311D01*
X125150D01*
X144835Y226905D02*
Y228311D01*
Y215094D02*
X146240D01*
X144835Y213689D02*
Y215094D01*
Y226905D02*
X146240D01*
X123744Y215094D02*
X125150D01*
Y213689D02*
Y215094D01*
X123650Y226905D02*
X125150D01*
Y228311D01*
M02*
