M48
;Layer_Color=9474304
;FILE_FORMAT=2:5
INCH,LZ
;TYPE=PLATED
T1F00S00C0.00787
T2F00S00C0.01575
T4F00S00C0.03150
T5F00S00C0.03543
T6F00S00C0.03937
;TYPE=NON_PLATED
T7F00S00C0.03150
T8F00S00C0.05906
T9F00S00C0.11811
%
T01
X00505Y0053835
Y0058165
T02
X00565Y0046
X00505Y00705
X00445Y0071
X00645Y0107
Y0113
Y0119
Y0125
Y0131
Y0137
Y0143
Y0149
Y0155
X0077Y0149
X0073Y0137
X0077Y0125
X0087
X0097
X0112
Y0119
Y0113
Y0107
X01145Y0096
X0127Y01045
Y0111
Y01175
Y0124
Y01305
Y0137
X0112
Y0131
Y0143
Y0149
Y0155
X01275Y01525
X0138Y01465
X0145Y01545
X0097Y0149
X0104Y0137
X0097Y0107
X0087
X0077
X0139Y0102
X0159Y0212
X0156Y02175
X0151Y02405
X01365Y0241
X01305Y0237
X0127Y02325
X012Y02305
X01125Y0236
X011Y022
X01195Y02065
X0131Y0205
X0138736Y0198744
X0116492Y0192008
X0114Y01845
X0104Y0191
X0097Y01815
X0095Y01985
X0086992Y02015
X0084Y01975
X0079Y0205
X00845Y0211
X0087Y02175
Y02265
X0075Y02325
X00695Y0231
X00595Y0219
X0053Y0203
Y0179
X0065862Y0189
X0081Y0188
X00645Y0167
Y0161
X0048Y0157
X0112Y0161
Y0167
X0125Y0162
X013Y016675
X0133Y02585
X01385Y02635
X01155Y02665
X0108Y02625
X01065Y02525
X0119748Y02515
X00915Y02525
X00925Y0247508
X0095Y0243
X00785Y0249
Y02545
X00735Y0254
X00495Y0256
X0048957Y0249205
X00505Y0236
T04
X01405Y0126
T05
X0146Y0273
X0156
T06
X00765Y0081102
X00865
X0096445
X0106287
X011613
X0125972
X0135815
X0145658
X01555
T07
X0091736Y02725
X009961
X0107484
X0123232
T08
X0083469Y02725
X01315
T09
X0089382Y013948
M30
